<svg width="71.99999999999999" height="86" xmlns="http://www.w3.org/2000/svg">

 <g>
  <title>background</title>
  <rect fill="none" id="canvas_background" height="88" width="74" y="-1" x="-1"/>
 </g>
 <g>
  <title>Layer 1</title>
  <g id="svg_1">
   <path id="svg_2" d="m71.596954,45.44989l0,-31.499925c0,-1.100008 -0.5,-2.100014 -1.400002,-2.900018c-0.799995,-0.700005 -1.699997,-1.000006 -2.699997,-1.000006l-0.400002,0c-1.5,0.200002 -3.200001,0.300001 -4.700035,0.300001c-14.300285,0 -23.600285,-8.899989 -23.700283,-8.999989c-0.700001,-0.699999 -1.700001,-1.1 -2.700001,-1.1s-2,0.4 -2.700001,1.1c0,0.1 -9.199894,8.999989 -23.699866,8.999989c-1.500008,0 -3.200014,-0.099999 -4.700018,-0.300001l-0.400003,0c-1.000004,0 -1.900005,0.300001 -2.700007,1.000006c-0.899998,0.800004 -1.399997,1.70001 -1.399997,2.900018l0,31.499925c-0.099999,1.799999 -0.199999,13.200027 10.600031,24.70015c0.200003,0.200012 0.400004,0.400009 0.600006,0.600006c5.000033,5.199997 12.399964,10.399994 22.999854,14.699997c0.5,0.199997 1,0.300003 1.5,0.300003s1,-0.100006 1.5,-0.300003c10.5,-4.300003 17.800125,-9.5 22.80024,-14.599991c1.200024,-1.200012 2.200047,-2.400009 3.200069,-3.600006c8.300014,-10.500156 8.10001,-20.200157 8.000011,-21.800156zm-8.000011,12.600018c-0.800014,1.600033 -1.800037,3.300079 -3.200069,5.100113l0,-16.70013c0,-0.400002 -0.300011,-0.700001 -0.70002,-0.700001l-47.400073,0c-0.4,0 -0.700001,0.299999 -0.700001,0.700001l0,16.50013c-0.200002,-0.300011 -0.400003,-0.500011 -0.600006,-0.800022c-0.800003,-1.100021 -1.500009,-2.200047 -2.10001,-3.40007c-3.500012,-6.500038 -3.600015,-11.700039 -3.500012,-13.200039l0,-30.399916c1.400002,0.1 2.800008,0.2 4.200017,0.2c8.600041,0 15.399964,-2.800016 19.699914,-5.100029c2.399971,-1.300007 4.299952,-2.700004 5.399954,-3.500002c0.5,-0.4 0.899998,-0.699998 1.299999,-1.099997c2.799999,2.399993 12.5,9.700028 26.400284,9.700028c1.400036,0 2.800034,-0.099999 4.200035,-0.2l0,30.699919c0,0.399998 0.400002,5.5 -3.000011,12.200016z"/>
   <path id="svg_3" d="m59.496849,22.449986c0.300011,-0.5 0.100002,-1.200001 -0.400009,-1.5c-0.500011,-0.299999 -1.200024,-0.100002 -1.500034,0.399998l-4.000092,6.899965c-4.400078,-4.299963 -10.700077,-6.999964 -17.600079,-6.999964c-6.899952,0 -13.199879,2.700001 -17.599827,6.999964l-4.000013,-6.899965c-0.300001,-0.5 -1.000006,-0.699997 -1.500009,-0.399998c-0.500003,0.299999 -0.700005,1 -0.400004,1.5l4.300028,7.499945c-3.100019,3.799959 -5.000032,8.49996 -5.000032,13.599958l48.300085,0c0,-5.099998 -1.900043,-9.799999 -5.000114,-13.599958l4.400101,-7.499945zm-32.700138,13.099903c-1.099987,0 -1.899977,-0.899998 -1.899977,-1.899998c0,-1.100002 0.899988,-1.89999 1.899977,-1.89999s1.899979,0.89999 1.899979,1.89999c0,1 -0.89999,1.899998 -1.899979,1.899998zm18.499924,0c-1.099998,0 -1.899998,-0.899998 -1.899998,-1.899998c0,-1.100002 0.899998,-1.89999 1.899998,-1.89999c1.100002,0 1.900002,0.89999 1.900002,1.89999c0,1 -0.900002,1.899998 -1.900002,1.899998z"/>
  </g>
 </g>
</svg>